<?xml version="1.0" encoding="utf-8"?>
<!-- Generator: Adobe Illustrator 18.0.0, SVG Export Plug-In . SVG Version: 6.00 Build 0)  -->
<!DOCTYPE svg PUBLIC "-//W3C//DTD SVG 1.1//EN" "http://www.w3.org/Graphics/SVG/1.1/DTD/svg11.dtd">
<svg version="1.1" id="Layer_1" xmlns="http://www.w3.org/2000/svg" xmlns:xlink="http://www.w3.org/1999/xlink" x="0px" y="0px"
	 viewBox="0 0 4497 1347.4" enable-background="new 0 0 4497 1347.4" xml:space="preserve">
<g>
	<path fill="#C1C72B" d="M176.8,717.2C127.7,386.9,334,78.7,644.9,0c-21.7,1.1-43.6,3.3-65.6,6.6C217.4,60.3-33.7,388.8,18.5,740.1
		s387.9,592.6,749.9,538.8c19.8-2.9,39.3-6.8,58.5-11.3C509,1279.3,225.5,1045.3,176.8,717.2z"/>
</g>
<g>
	<path fill="#E2E070" d="M826.3,907.5c-185.4,52.9-374.8-33.1-439.9-193.7c2.1,11.6,4.7,23.2,8,34.7
		c54.2,190,258.1,298.5,455.3,242.2c197.2-56.3,313.1-256,258.9-446c-3-10.4-6.4-20.6-10.3-30.5
		C1125.6,683.9,1010.4,854.9,826.3,907.5z"/>
</g>
<g>
	<path fill="#E2E070" d="M891,301.8c101.3,85.1,134.2,215.6,67.9,314.3c5.8-5.6,11.4-11.6,16.6-17.9
		c87.2-103.8,70.5-261.4-37.2-351.9c-107.8-90.5-265.8-79.7-353,24.2c-4.8,5.7-9.2,11.6-13.4,17.6
		C657.8,207.3,790.3,217.3,891,301.8z"/>
</g>
<g>
	<path fill="#C1C72B" d="M778.3,627.8c-49.6,65.5-129.1,97.8-195.4,57.6c3.9,3.6,7.9,7,12.2,10.2c70.5,53.4,170.5,40.1,223.2-29.6
		c52.7-69.7,38.3-169.5-32.2-222.8c-3.9-2.9-7.8-5.6-11.9-8.2C829.9,488.1,827.5,562.7,778.3,627.8z"/>
</g>
<g>
	<path fill="#693200" d="M1031.2,1279.3c0.4-12.4,1.7-26.4,3-41.4h-1.3c-19.2,34.5-45.6,46.1-69.9,46.1c-37.5,0-63.1-29-63.1-72.5
		c0-70.4,46.5-145.4,149.3-145.4c24.7,0,51.6,4.7,69.1,10.2l-22.2,109.2c-5.1,26.9-9,67.8-8.1,93.8H1031.2z M1049.1,1114.3
		c-4.7-0.9-10.7-1.7-16.6-1.7c-39.7,0-68.7,48.6-68.7,87.4c0,20.5,8.1,34.5,25.2,34.5c18.3,0,40.9-20.9,50.3-72.1L1049.1,1114.3z"/>
	<path fill="#693200" d="M1151.4,976.6h64.8v119h0.9c6.8-9,15.4-15.8,25.6-21.3c9.4-5.1,21.7-8.1,33.7-8.1
		c41.4,0,72.9,28.6,72.9,91.3v122h-64.8v-114.7c0-27.3-9.4-46.1-33.7-46.1c-17.1,0-27.7,11.1-32.4,22.6c-1.7,4.3-2.1,9.8-2.1,14.5
		v123.7h-64.8V976.6z"/>
	<path fill="#693200" d="M1597.9,1212.4c0,27.3,0.9,49.5,1.7,67h-56.3l-3-29.4h-1.3c-8.1,12.8-27.7,34.1-65.2,34.1
		c-42.2,0-73.3-26.4-73.3-90.8v-122.4h65.2V1183c0,30.3,9.8,48.6,32.4,48.6c17.9,0,28.1-12.4,32.4-22.6c1.7-3.8,2.1-9,2.1-14.1
		v-124.1h65.2V1212.4z"/>
	<path fill="#693200" d="M1697.3,1168.2c0-15.7-0.3-28.6-1.3-41.2h24.2l1.3,24.5h0.9c8.5-14.5,22.7-28,47.8-28
		c20.8,0,36.5,12.6,43.1,30.5h0.6c4.7-8.5,10.7-15.1,17-19.8c9.1-6.9,19.2-10.7,33.7-10.7c20.1,0,50,13.2,50,66.1v89.7h-27.1v-86.2
		c0-29.3-10.7-46.9-33-46.9c-15.7,0-28,11.6-32.7,25.2c-1.3,3.8-2.2,8.8-2.2,13.8v94.1h-27.1V1188c0-24.2-10.7-41.9-31.8-41.9
		c-17.3,0-29.9,13.8-34.3,27.7c-1.6,4.1-2.2,8.8-2.2,13.5v91.9h-27.1V1168.2z"/>
	<path fill="#693200" d="M2044.2,1279.3l-2.2-19.2h-0.9c-8.5,12-24.9,22.7-46.6,22.7c-30.8,0-46.6-21.7-46.6-43.7
		c0-36.8,32.7-57,91.6-56.7v-3.1c0-12.6-3.5-35.3-34.6-35.3c-14.2,0-29,4.4-39.7,11.3l-6.3-18.3c12.6-8.2,30.8-13.5,50-13.5
		c46.6,0,57.9,31.8,57.9,62.3v57c0,13.2,0.6,26.1,2.5,36.5H2044.2z M2040.1,1201.6c-30.2-0.6-64.5,4.7-64.5,34.3
		c0,17.9,12,26.4,26.1,26.4c19.8,0,32.4-12.6,36.8-25.5c0.9-2.8,1.6-6,1.6-8.8V1201.6z"/>
	<path fill="#693200" d="M2107.8,1251c8.2,5.4,22.7,11,36.5,11c20.1,0,29.6-10.1,29.6-22.7c0-13.2-7.9-20.5-28.3-28
		c-27.4-9.8-40.3-24.9-40.3-43.1c0-24.5,19.8-44.7,52.6-44.7c15.4,0,29,4.4,37.5,9.4l-6.9,20.1c-6-3.8-17-8.8-31.2-8.8
		c-16.4,0-25.5,9.4-25.5,20.8c0,12.6,9.1,18.3,29,25.8c26.4,10.1,40,23.3,40,46c0,26.8-20.8,45.6-57,45.6
		c-16.7,0-32.1-4.1-42.8-10.4L2107.8,1251z"/>
	<path fill="#693200" d="M2232.4,1251c8.2,5.4,22.7,11,36.5,11c20.1,0,29.6-10.1,29.6-22.7c0-13.2-7.9-20.5-28.3-28
		c-27.4-9.8-40.3-24.9-40.3-43.1c0-24.5,19.8-44.7,52.6-44.7c15.4,0,29,4.4,37.5,9.4l-6.9,20.1c-6-3.8-17-8.8-31.2-8.8
		c-16.4,0-25.5,9.4-25.5,20.8c0,12.6,9.1,18.3,29,25.8c26.4,10.1,40,23.3,40,46c0,26.8-20.8,45.6-57,45.6
		c-16.7,0-32.1-4.1-42.8-10.4L2232.4,1251z"/>
	<path fill="#693200" d="M2445.2,1279.3l-2.2-19.2h-0.9c-8.5,12-24.9,22.7-46.6,22.7c-30.8,0-46.6-21.7-46.6-43.7
		c0-36.8,32.7-57,91.6-56.7v-3.1c0-12.6-3.5-35.3-34.6-35.3c-14.2,0-29,4.4-39.7,11.3l-6.3-18.3c12.6-8.2,30.8-13.5,50-13.5
		c46.6,0,57.9,31.8,57.9,62.3v57c0,13.2,0.6,26.1,2.5,36.5H2445.2z M2441.1,1201.6c-30.2-0.6-64.5,4.7-64.5,34.3
		c0,17.9,12,26.4,26.1,26.4c19.8,0,32.4-12.6,36.8-25.5c0.9-2.8,1.6-6,1.6-8.8V1201.6z"/>
	<path fill="#693200" d="M2643.8,1127c-0.6,11-1.3,23.3-1.3,41.9v88.4c0,34.9-6.9,56.3-21.7,69.6c-14.8,13.8-36.2,18.3-55.4,18.3
		c-18.3,0-38.4-4.4-50.7-12.6l6.9-21.1c10.1,6.3,25.8,12,44.7,12c28.3,0,49.1-14.8,49.1-53.2v-17h-0.6
		c-8.5,14.2-24.9,25.5-48.5,25.5c-37.8,0-64.8-32.1-64.8-74.3c0-51.6,33.7-80.9,68.6-80.9c26.4,0,40.9,13.8,47.5,26.4h0.6l1.3-23
		H2643.8z M2615.1,1187.1c0-4.7-0.3-8.8-1.6-12.6c-5-16.1-18.6-29.3-38.7-29.3c-26.4,0-45.3,22.3-45.3,57.6
		c0,29.9,15.1,54.8,45,54.8c17,0,32.4-10.7,38.4-28.3c1.6-4.7,2.2-10.1,2.2-14.8V1187.1z"/>
	<path fill="#693200" d="M2703.9,1208.2c0.6,37.5,24.5,52.9,52.2,52.9c19.8,0,31.8-3.5,42.2-7.9l4.7,19.8
		c-9.8,4.4-26.4,9.4-50.7,9.4c-46.9,0-74.9-30.8-74.9-76.8c0-46,27.1-82.1,71.4-82.1c49.7,0,62.9,43.7,62.9,71.8
		c0,5.7-0.6,10.1-0.9,12.9H2703.9z M2785.1,1188.4c0.3-17.6-7.2-45-38.4-45c-28,0-40.3,25.8-42.5,45H2785.1z"/>
	<path fill="#693200" d="M3046.6,1279.3c-6-6-11.6-12-19.8-20.8c-18.3,17-38.7,24.2-62,24.2c-41.2,0-65.2-27.7-65.2-59.5
		c0-29,17.3-48.8,41.5-62v-0.9c-11-13.8-17.6-29.3-17.6-44.4c0-25.8,18.6-52.2,53.8-52.2c26.4,0,46.9,17.6,46.9,45
		c0,22.3-12.9,40-46.6,56.7v0.9c17.9,20.8,38.1,44.1,51.6,59.2c9.8-14.8,16.4-35.3,20.5-62h25.2c-5.7,33.4-14.8,59.8-30.5,78.4
		c11.3,12,22.3,23.9,34.9,37.5H3046.6z M3013.3,1242.8c-12.6-13.8-36.2-39.7-59.8-66.7c-11.3,7.2-27.4,20.8-27.4,43.1
		c0,24.2,17.9,42.8,43.4,42.8C2987.8,1262,3003.2,1253.8,3013.3,1242.8z M2948.7,1113.5c0,15.1,6.9,26.8,16.1,38.1
		c21.4-12.3,35.3-23.6,35.3-41.5c0-12.9-7.2-27.4-24.5-27.4C2957.9,1082.6,2948.7,1097.1,2948.7,1113.5z"/>
	<path fill="#693200" d="M3168.7,1279.3c0.6-10.4,1.3-25.8,1.3-39.3v-184.1h27.4v95.7h0.6c9.8-17,27.4-28,51.9-28
		c37.8,0,64.5,31.5,64.2,77.7c0,54.5-34.3,81.5-68.3,81.5c-22,0-39.7-8.5-51-28.6h-0.9l-1.3,25.2H3168.7z M3197.4,1218.3
		c0,3.5,0.6,6.9,1.3,10.1c5.4,19.2,21.4,32.4,41.5,32.4c29,0,46.3-23.6,46.3-58.5c0-30.5-15.7-56.7-45.3-56.7
		c-18.9,0-36.5,12.9-42.2,34c-0.6,3.1-1.6,6.9-1.6,11.3V1218.3z"/>
	<path fill="#693200" d="M3487,1201.9c0,56.3-39,80.9-75.9,80.9c-41.2,0-73-30.2-73-78.4c0-51,33.4-80.9,75.5-80.9
		C3457.4,1123.5,3487,1155.3,3487,1201.9z M3366.1,1203.5c0,33.4,19.2,58.5,46.3,58.5c26.4,0,46.3-24.9,46.3-59.2
		c0-25.8-12.9-58.5-45.6-58.5S3366.1,1174.5,3366.1,1203.5z"/>
	<path fill="#693200" d="M3653.5,1055.9V1240c0,13.5,0.3,29,1.3,39.3h-24.9l-1.3-26.4h-0.6c-8.5,17-27.1,29.9-51.9,29.9
		c-36.8,0-65.2-31.2-65.2-77.4c-0.3-50.7,31.2-81.8,68.3-81.8c23.3,0,39,11,46,23.3h0.6v-91H3653.5z M3625.8,1189
		c0-3.5-0.3-8.2-1.3-11.6c-4.1-17.6-19.2-32.1-40-32.1c-28.6,0-45.6,25.2-45.6,58.9c0,30.8,15.1,56.3,45,56.3
		c18.6,0,35.6-12.3,40.6-33c0.9-3.8,1.3-7.6,1.3-12V1189z"/>
	<path fill="#693200" d="M3709.5,1127l33.4,90c3.5,10.1,7.2,22,9.8,31.2h0.6c2.8-9.1,6-20.8,9.8-31.8l30.2-89.4h29.3l-41.5,108.6
		c-19.8,52.2-33.4,79-52.2,95.4c-13.5,12-27.1,16.7-34,17.9l-6.9-23.3c6.9-2.2,16.1-6.6,24.2-13.5c7.6-6,17-16.7,23.3-30.8
		c1.3-2.8,2.2-5,2.2-6.6c0-1.6-0.6-3.8-1.9-7.2l-56.3-140.4H3709.5z"/>
	<path fill="#693200" d="M3862.4,1127l20.1,77.4c4.4,17,8.5,32.7,11.3,48.5h0.9c3.5-15.4,8.5-31.8,13.5-48.2l24.9-77.7h23.3
		l23.6,76.2c5.7,18.3,10.1,34.3,13.5,49.7h0.9c2.5-15.4,6.6-31.5,11.6-49.4l21.7-76.5h27.4l-49.1,152.3h-25.2l-23.3-72.7
		c-5.4-17-9.8-32.1-13.5-50h-0.6c-3.8,18.3-8.5,34-13.8,50.4l-24.6,72.4h-25.2l-46-152.3H3862.4z"/>
	<path fill="#693200" d="M4217.8,1201.9c0,56.3-39,80.9-75.9,80.9c-41.2,0-73-30.2-73-78.4c0-51,33.4-80.9,75.5-80.9
		C4188.2,1123.5,4217.8,1155.3,4217.8,1201.9z M4096.9,1203.5c0,33.4,19.2,58.5,46.3,58.5c26.4,0,46.3-24.9,46.3-59.2
		c0-25.8-12.9-58.5-45.6-58.5S4096.9,1174.5,4096.9,1203.5z"/>
	<path fill="#693200" d="M4252.7,1174.5c0-17.9-0.3-33.4-1.3-47.5h24.2l0.9,29.9h1.3c6.9-20.5,23.6-33.4,42.2-33.4
		c3.1,0,5.4,0.3,7.9,0.9v26.1c-2.8-0.6-5.7-0.9-9.4-0.9c-19.5,0-33.4,14.8-37.1,35.6c-0.6,3.8-1.3,8.2-1.3,12.9v81.2h-27.4V1174.5z"
		/>
	<path fill="#693200" d="M4384.3,1196.9h0.6c3.8-5.4,9.1-12,13.5-17.3l44.7-52.6h33.4l-58.9,62.6l67,89.7H4451l-52.6-73l-14.2,15.7
		v57.3h-27.4v-223.5h27.4V1196.9z"/>
</g>
</svg>
